<?xml version="1.0" encoding="UTF-8"?>
<svg xmlns="http://www.w3.org/2000/svg" xmlns:xlink="http://www.w3.org/1999/xlink" width="24" height="24" viewBox="0 0 24 24" version="1.1">
<g id="surface1">
<path style=" stroke:none;fill-rule:evenodd;fill:rgb(92.156863%,0.392157%,0%);fill-opacity:1;" d="M 12 0 C 18.628906 0 24 5.371094 24 12 C 24 18.628906 18.628906 24 12 24 C 5.371094 24 0 18.628906 0 12 C 0 5.371094 5.371094 0 12 0 Z M 12 0 "/>
<path style=" stroke:none;fill-rule:evenodd;fill:rgb(100%,100%,100%);fill-opacity:1;" d="M 6.910156 9.710938 C 6.488281 9.296875 6.148438 9.035156 6.679688 8.519531 L 8.386719 6.855469 C 8.925781 6.308594 9.242188 6.335938 9.753906 6.855469 L 12.046875 9.152344 L 14.335938 6.867188 C 14.753906 6.441406 15.011719 6.101562 15.527344 6.632812 L 17.1875 8.339844 C 17.734375 8.878906 17.707031 9.199219 17.1875 9.707031 L 14.898438 12 L 17.1875 14.300781 C 17.707031 14.804688 17.734375 15.121094 17.1875 15.667969 L 15.519531 17.375 C 15.007812 17.902344 14.738281 17.570312 14.328125 17.140625 L 12.046875 14.84375 L 9.746094 17.152344 C 9.242188 17.667969 8.925781 17.695312 8.378906 17.152344 L 6.671875 15.484375 C 6.144531 14.972656 6.476562 14.703125 6.90625 14.292969 L 9.199219 12 Z M 6.910156 9.710938 "/>
</g>
</svg>
