<?xml version="1.0" encoding="UTF-8"?>
<svg xmlns="http://www.w3.org/2000/svg" xmlns:xlink="http://www.w3.org/1999/xlink" width="24" height="24" viewBox="0 0 24 24" version="1.1">
<g id="surface1">
<path style=" stroke:none;fill-rule:evenodd;fill:rgb(0%,66.274512%,7.058824%);fill-opacity:1;" d="M 12 0 C 18.628906 0 24 5.371094 24 12 C 24 18.628906 18.628906 24 12 24 C 5.371094 24 0 18.628906 0 12 C 0 5.371094 5.371094 0 12 0 Z M 12 0 "/>
<path style=" stroke:none;fill-rule:evenodd;fill:rgb(100%,100%,100%);fill-opacity:1;" d="M 8.277344 10.09375 L 10.402344 12.109375 L 15.429688 7.007812 C 15.847656 6.585938 16.109375 6.246094 16.621094 6.773438 L 18.289062 8.480469 C 18.835938 9.023438 18.808594 9.339844 18.289062 9.847656 L 11.355469 16.667969 C 10.265625 17.734375 10.457031 17.800781 9.351562 16.707031 L 5.46875 12.847656 C 5.238281 12.597656 5.265625 12.34375 5.515625 12.097656 L 7.449219 10.089844 C 7.742188 9.78125 7.976562 9.808594 8.273438 10.089844 Z M 8.277344 10.09375 "/>
</g>
</svg>
